<svg version="1.1" id="Layer_1" xmlns="http://www.w3.org/2000/svg" xmlns:xlink="http://www.w3.org/1999/xlink" x="0px" y="0px"
	 width="100%" viewBox="0 0 300 299" xml:space="preserve">
<path fill="#5B90E5" opacity="1.000000" stroke="none" 
	d="
M147.000000,0.999999 
	C148.714447,1.000000 150.428909,1.000000 152.229004,1.352159 
	C153.664093,2.136008 154.988907,2.817639 156.367538,2.953666 
	C160.950577,3.405862 165.564865,3.545649 170.145798,4.014147 
	C186.672531,5.704360 202.367035,10.772436 217.000366,18.183453 
	C234.446060,27.018768 249.881393,38.759041 262.670502,53.968803 
	C274.262512,67.754875 282.966583,82.961639 289.361084,99.698578 
	C295.551422,115.901077 298.292480,132.794571 298.777802,149.930832 
	C299.039703,159.177399 297.611328,168.606232 295.865875,177.746674 
	C292.464111,195.560730 286.415100,212.492798 276.605377,227.923767 
	C268.286224,241.010010 259.182037,253.534439 246.562363,262.759094 
	C235.950485,270.516083 225.291824,278.649078 213.542084,284.306671 
	C195.718658,292.888885 176.671829,298.334991 156.469971,298.090851 
	C155.654449,298.080994 154.823669,299.334900 154.000000,300.000000 
	C151.958328,300.000000 149.916672,300.000000 147.690948,299.611206 
	C146.491486,298.816193 145.503143,298.156372 144.456268,298.044647 
	C137.457306,297.297607 130.352737,297.172577 123.456573,295.901123 
	C105.422707,292.576202 88.514915,286.081451 72.876953,276.423431 
	C59.086258,267.906250 46.416294,257.944031 36.647312,244.951370 
	C29.629511,235.617752 22.449522,226.058945 17.524914,215.575134 
	C8.861291,197.131500 2.781908,177.688568 2.912344,156.865448 
	C2.918302,155.914337 1.666171,154.955322 1.000001,154.000000 
	C1.000000,151.958328 1.000000,149.916672 1.317235,147.820053 
	C2.089060,146.604233 2.822243,145.473679 2.952367,144.277512 
	C3.714000,137.276138 3.725316,130.135513 5.121306,123.272011 
	C8.757303,105.395309 14.602617,88.319527 24.564795,72.773376 
	C34.116619,57.867592 45.386150,44.712513 59.487255,33.852085 
	C71.068687,24.932272 83.443184,17.532637 97.100731,12.540413 
	C112.290115,6.988259 127.829369,2.630193 144.278854,2.910226 
	C145.174805,2.925479 146.092453,1.666069 147.000000,0.999999 
M136.890915,62.361477 
	C105.071434,116.636368 73.270927,170.922409 41.386646,225.159210 
	C39.413441,228.515762 38.213577,231.364288 42.453808,234.267319 
	C44.062119,233.352280 45.784927,232.399536 47.481766,231.402588 
	C85.661720,208.970779 123.861076,186.571732 161.974655,164.027664 
	C165.057083,162.204407 166.968430,162.357590 169.759811,164.638092 
	C196.840393,186.762329 224.105011,208.661316 251.174210,230.799332 
	C254.407410,233.443558 256.502289,233.146378 259.098358,230.231812 
	C224.943893,163.444534 190.867111,96.809166 156.335785,29.284939 
	C149.673737,40.601307 143.457397,51.160583 136.890915,62.361477 
z"/>
<path fill="#F8FAFE" opacity="1.000000" stroke="none" 
	d="
M137.065979,62.040668 
	C143.457397,51.160583 149.673737,40.601307 156.335785,29.284939 
	C190.867111,96.809166 224.943893,163.444534 259.098358,230.231812 
	C256.502289,233.146378 254.407410,233.443558 251.174210,230.799332 
	C224.105011,208.661316 196.840393,186.762329 169.759811,164.638092 
	C166.968430,162.357590 165.057083,162.204407 161.974655,164.027664 
	C123.861076,186.571732 85.661720,208.970779 47.481766,231.402588 
	C45.784927,232.399536 44.062119,233.352280 42.453808,234.267319 
	C38.213577,231.364288 39.413441,228.515762 41.386646,225.159210 
	C73.270927,170.922409 105.071434,116.636368 137.065979,62.040668 
M244.792648,217.777039 
	C245.017273,218.012558 245.241882,218.248093 245.466492,218.483627 
	C245.353363,217.953629 245.240234,217.423645 245.049072,216.177322 
	C231.964432,190.432129 218.879791,164.686935 205.579056,138.516556 
	C194.045593,145.288589 183.058304,151.739944 171.552979,158.495483 
	C180.641510,165.867508 189.251968,172.898361 197.912781,179.866623 
	C213.457413,192.373413 229.032288,204.842621 244.792648,217.777039 
M52.999363,221.149704 
	C88.841423,200.136566 124.683487,179.123428 161.130157,157.755814 
	C144.344131,144.158524 128.117874,131.014664 111.795395,117.792854 
	C111.089722,118.611977 110.579521,119.050156 110.258400,119.598976 
	C90.606705,153.184433 70.970482,186.778946 50.923077,220.728867 
	C50.842514,221.091904 50.761951,221.454926 50.681389,221.817963 
	C51.235249,221.669876 51.789104,221.521790 52.999363,221.149704 
M170.576843,152.146545 
	C181.244781,145.861771 191.912704,139.576981 202.776550,133.176788 
	C187.086288,102.515205 171.765320,72.575249 155.941177,41.652046 
	C141.753448,65.859779 128.189590,89.003067 114.527245,112.314369 
	C131.406906,125.988518 147.766846,139.336121 164.315201,152.445938 
	C165.483719,153.371658 168.040787,152.544617 170.576843,152.146545 
z"/>
<path fill="#5C91E5" opacity="1.000000" stroke="none" 
	d="
M170.264526,152.339569 
	C168.040787,152.544617 165.483719,153.371658 164.315201,152.445938 
	C147.766846,139.336121 131.406906,125.988518 114.527245,112.314369 
	C128.189590,89.003067 141.753448,65.859779 155.941177,41.652046 
	C171.765320,72.575249 187.086288,102.515205 202.776550,133.176788 
	C191.912704,139.576981 181.244781,145.861771 170.264526,152.339569 
z"/>
<path fill="#5C91E5" opacity="1.000000" stroke="none" 
	d="
M51.332832,220.372620 
	C70.970482,186.778946 90.606705,153.184433 110.258400,119.598976 
	C110.579521,119.050156 111.089722,118.611977 111.795395,117.792854 
	C128.117874,131.014664 144.344131,144.158524 161.130157,157.755814 
	C124.683487,179.123428 88.841423,200.136566 52.421368,221.008667 
	C51.673195,220.702637 51.503014,220.537628 51.332832,220.372620 
z"/>
<path fill="#5D92E5" opacity="1.000000" stroke="none" 
	d="
M244.594528,217.327530 
	C229.032288,204.842621 213.457413,192.373413 197.912781,179.866623 
	C189.251968,172.898361 180.641510,165.867508 171.552979,158.495483 
	C183.058304,151.739944 194.045593,145.288589 205.579056,138.516556 
	C218.879791,164.686935 231.964432,190.432129 244.955170,216.644241 
	C244.861267,217.111160 244.594528,217.327530 244.594528,217.327530 
z"/>
<path fill="#5D92E5" opacity="1.000000" stroke="none" 
	d="
M244.994186,217.002411 
	C245.240234,217.423645 245.353363,217.953629 245.466492,218.483627 
	C245.241882,218.248093 245.017273,218.012558 244.693588,217.552277 
	C244.594528,217.327530 244.861267,217.111160 244.994186,217.002411 
z"/>
<path fill="#5C91E5" opacity="1.000000" stroke="none" 
	d="
M52.093166,221.120667 
	C51.789104,221.521790 51.235249,221.669876 50.681389,221.817963 
	C50.761951,221.454926 50.842514,221.091904 51.127953,220.550751 
	C51.503014,220.537628 51.673195,220.702637 52.093166,221.120667 
z"/>
</svg>